# xmcd
#
# Track frame offsets:
#	150
#	10180
#	25098
#	40647
#	56973
#	72858
#	87717
#	101020
#	117349
#	133345
#	151603
#	170961
#	181063
#	194625
#	208352
#	220546
#	230281
#	245226
#	255154
#	268549
#	284885
#	295498
#	308609
#	322475
#	337288
#
# Disc length: 4675 seconds
#
# Revision: 1
# Processed by: cddbd v1.5.2PL0 Copyright (c) Steve Scherf et al.
# Submitted via: audiograbber 1.83.01
#
DISCID=8f124119
DTITLE=Ray Charles - Modern Sounds in Country and Western Music
DYEAR=2018
DGENRE=Country-Soul
TTITLE0=Bye Bye Love
TTITLE1=You don't know me
TTITLE2=Half as Much
TTITLE3=I love you so much it hurts
TTITLE4=Just a little lovin'
TTITLE5=Born to lose
TTITLE6=Worried Mind
TTITLE7=It makes no Difference now
TTITLE8=You win again
TTITLE9=Careless Love
TTITLE10=I can't stopp loving you
TTITLE11=Hey, Good Lookin'
TTITLE12=You are my Sunshine
TTITLE13=No Letter Today
TTITLE14=Someday (You'll want me to want you)
TTITLE15=Don't tell me your troubles
TTITLE16=Midnight
TTITLE17=Oh, lonesome me
TTITLE18=Take these chains from my heart
TTITLE19=Your cheating Heart
TTITLE20=I'll never stand in your way
TTITLE21=Making believe
TTITLE22=Teardrops in my Heart
TTITLE23=Hang your Head in Shame
TTITLE24=At the Cjub [Bonus]
EXTD=Track 1-12:  Modern Sounds in Country and Western Music Vol.1,\nFebruar 1962
EXTD=\nTrack 13-24: Modern Sounds in Country and Western Music Vol.2, September 1
EXTD=962\nTrack 25: same session, aber nicht in Original-LP enthalten
EXTT0=
EXTT1=
EXTT2=
EXTT3=
EXTT4=
EXTT5=
EXTT6=
EXTT7=
EXTT8=
EXTT9=
EXTT10=
EXTT11=
EXTT12=
EXTT13=
EXTT14=
EXTT15=
EXTT16=
EXTT17=
EXTT18=
EXTT19=
EXTT20=
EXTT21=
EXTT22=
EXTT23=
EXTT24=
PLAYORDER=
